<?xml version="1.0" encoding="UTF-8" standalone="no"?>
<!DOCTYPE svg PUBLIC "-//W3C//DTD SVG 1.1//EN" "http://www.w3.org/Graphics/SVG/1.1/DTD/svg11.dtd">
<svg width="100%" height="100%" viewBox="0 0 65 117" version="1.1" xmlns="http://www.w3.org/2000/svg" xmlns:xlink="http://www.w3.org/1999/xlink" xml:space="preserve" xmlns:serif="http://www.serif.com/" style="fill-rule:evenodd;clip-rule:evenodd;stroke-linecap:round;stroke-linejoin:round;stroke-miterlimit:2;">
    <g transform="matrix(1,0,0,1,-725.436,-165.15)">
        <rect x="742.949" y="170.903" width="28.465" height="78.52" style="fill:rgb(255,242,221);fill-rule:nonzero;"/>
        <rect x="742.949" y="170.903" width="28.465" height="78.52" style="fill:none;stroke:rgb(73,28,14);stroke-width:3.02px;"/>
        <path d="M775.52,213.824L738.843,213.824C737.623,213.824 736.633,214.814 736.633,216.034L736.633,276.903L777.73,276.903L777.73,216.034C777.73,214.814 776.74,213.824 775.52,213.824Z" style="fill:rgb(255,90,0);fill-rule:nonzero;"/>
        <path d="M731.07,275.896L784.634,275.896" style="fill:none;stroke:rgb(73,28,14);stroke-width:5.04px;stroke-linecap:butt;stroke-linejoin:miter;"/>
        <path d="M753.678,226.775C753.678,229.046 751.837,230.887 749.566,230.887C747.295,230.887 745.454,229.046 745.454,226.775C745.454,224.504 747.295,222.663 749.566,222.663C751.837,222.663 753.678,224.504 753.678,226.775Z" style="fill:rgb(73,28,14);fill-rule:nonzero;"/>
        <path d="M753.678,244.571C753.678,246.842 751.837,248.683 749.566,248.683C747.295,248.683 745.454,246.842 745.454,244.571C745.454,242.3 747.295,240.459 749.566,240.459C751.837,240.459 753.678,242.3 753.678,244.571Z" style="fill:rgb(73,28,14);fill-rule:nonzero;"/>
        <path d="M753.678,262.366C753.678,264.637 751.837,266.478 749.566,266.478C747.295,266.478 745.454,264.637 745.454,262.366C745.454,260.095 747.295,258.254 749.566,258.254C751.837,258.254 753.678,260.095 753.678,262.366Z" style="fill:rgb(73,28,14);fill-rule:nonzero;"/>
        <path d="M736.742,171.911L777.73,171.911" style="fill:none;stroke:rgb(255,90,0);stroke-width:6.05px;stroke-linecap:butt;stroke-linejoin:miter;"/>
        <path d="M764.555,223.408L764.555,264.617" style="fill:none;stroke:rgb(255,242,221);stroke-width:5.04px;stroke-linecap:butt;stroke-linejoin:miter;"/>
    </g>
</svg>
