<?xml version="1.0" encoding="UTF-8" standalone="no"?>
<!DOCTYPE svg PUBLIC "-//W3C//DTD SVG 1.1//EN" "http://www.w3.org/Graphics/SVG/1.1/DTD/svg11.dtd">
<svg width="100%" height="100%" viewBox="0 0 73 110" version="1.1" xmlns="http://www.w3.org/2000/svg" xmlns:xlink="http://www.w3.org/1999/xlink" xml:space="preserve" xmlns:serif="http://www.serif.com/" style="fill-rule:evenodd;clip-rule:evenodd;stroke-linecap:round;stroke-linejoin:round;stroke-miterlimit:10;">
    <g transform="matrix(1,0,0,1,-42.1559,-20.526)">
        <g>
            <g id="Graphic">
                <g transform="matrix(-1,0,0,1,154.364,-25.672)">
                    <rect x="62.949" y="48.576" width="28.466" height="78.52" style="fill:rgb(255,251,235);stroke:rgb(97,67,59);stroke-width:3.02px;"/>
                </g>
                <g transform="matrix(1,0,0,1,95.5205,128.904)">
                    <path d="M0,-63.079L-36.677,-63.079C-37.897,-63.079 -38.887,-62.09 -38.887,-60.87L-38.887,0L2.209,0L2.209,-60.87C2.209,-62.09 1.22,-63.079 0,-63.079" style="fill:rgb(167,243,208);fill-rule:nonzero;"/>
                </g>
                <g transform="matrix(1,0,0,1,51.0703,127.896)">
                    <path d="M0,0L53.564,0" style="fill:none;fill-rule:nonzero;stroke:rgb(97,67,59);stroke-width:5.04px;stroke-linecap:butt;stroke-linejoin:miter;"/>
                </g>
                <g transform="matrix(0,-1,-1,0,69.5657,74.6634)">
                    <path d="M-4.112,-4.112C-6.383,-4.112 -8.224,-2.271 -8.224,-0.001C-8.224,2.271 -6.383,4.112 -4.112,4.112C-1.841,4.112 0,2.271 0,-0.001C0,-2.271 -1.841,-4.112 -4.112,-4.112" style="fill:rgb(97,67,59);fill-rule:nonzero;"/>
                </g>
                <g transform="matrix(0,-1,-1,0,69.5657,92.4593)">
                    <path d="M-4.112,-4.112C-6.383,-4.112 -8.224,-2.271 -8.224,-0.001C-8.224,2.271 -6.383,4.112 -4.112,4.112C-1.841,4.112 0,2.271 0,-0.001C0,-2.271 -1.841,-4.112 -4.112,-4.112" style="fill:rgb(97,67,59);fill-rule:nonzero;"/>
                </g>
                <g transform="matrix(0,-1,-1,0,69.5657,110.255)">
                    <path d="M-4.112,-4.112C-6.383,-4.112 -8.224,-2.271 -8.224,-0.001C-8.224,2.271 -6.383,4.112 -4.112,4.112C-1.841,4.112 0,2.271 0,-0.001C0,-2.271 -1.841,-4.112 -4.112,-4.112" style="fill:rgb(97,67,59);fill-rule:nonzero;"/>
                </g>
                <g transform="matrix(1,0,0,1,56.7422,23.9116)">
                    <path d="M0,0L40.987,0" style="fill:none;fill-rule:nonzero;stroke:rgb(167,243,208);stroke-width:6.05px;stroke-linecap:butt;stroke-linejoin:miter;"/>
                </g>
                <g transform="matrix(0,1,1,0,105.16,96.0127)">
                    <path d="M-20.604,-20.604L20.604,-20.604" style="fill:none;fill-rule:nonzero;stroke:rgb(255,251,235);stroke-width:5.04px;stroke-linecap:butt;stroke-linejoin:miter;"/>
                </g>
            </g>
        </g>
    </g>
</svg>
