<?xml version="1.0" encoding="UTF-8" standalone="no"?>
<!DOCTYPE svg PUBLIC "-//W3C//DTD SVG 1.1//EN" "http://www.w3.org/Graphics/SVG/1.1/DTD/svg11.dtd">
<svg width="100%" height="100%" viewBox="0 0 74 104" version="1.1" xmlns="http://www.w3.org/2000/svg" xmlns:xlink="http://www.w3.org/1999/xlink" xml:space="preserve" xmlns:serif="http://www.serif.com/" style="fill-rule:evenodd;clip-rule:evenodd;stroke-linecap:round;stroke-linejoin:round;stroke-miterlimit:2;">
    <g transform="matrix(1,0,0,1,-193.329,-347.238)">
        <path d="M249.525,406.508C246.655,401.435 246.279,395.324 248.504,389.937L264.527,352.093C265.195,350.516 264.037,348.769 262.325,348.769L198.069,348.769C196.356,348.769 195.198,350.516 195.866,352.093L211.891,389.942C214.115,395.326 213.739,401.434 210.871,406.503L196.26,433.348C195.546,434.609 195.033,435.992 194.902,437.435C194.37,443.306 199.006,448.769 205.36,448.769L255.033,448.769C261.388,448.769 266.023,443.306 265.491,437.435C265.36,435.992 264.847,434.609 264.133,433.348L249.525,406.508Z" style="fill:rgb(255,242,221);fill-rule:nonzero;"/>
        <path d="M249.525,406.508C246.655,401.435 246.279,395.324 248.504,389.937L264.527,352.093C265.195,350.516 264.037,348.769 262.325,348.769L198.069,348.769C196.356,348.769 195.198,350.516 195.866,352.093L211.891,389.942C214.115,395.326 213.739,401.434 210.871,406.503L196.26,433.348C195.546,434.609 195.033,435.992 194.902,437.435C194.37,443.306 199.006,448.769 205.36,448.769L255.033,448.769C261.388,448.769 266.023,443.306 265.491,437.435C265.36,435.992 264.847,434.609 264.133,433.348L249.525,406.508Z" style="fill:none;stroke:rgb(73,28,14);stroke-width:3.06px;"/>
        <path d="M196.26,433.348C195.546,434.609 195.033,435.991 194.902,437.435C194.37,443.306 199.006,448.769 205.36,448.769L255.033,448.769C261.388,448.769 266.023,443.306 265.491,437.435C265.36,435.991 264.847,434.609 264.133,433.348L254.785,416.173L206.442,414.641L196.26,433.348Z" style="fill:rgb(73,28,14);fill-rule:nonzero;"/>
        <path d="M206.018,386.39C208.616,392.678 208.176,399.81 204.826,405.731L201.208,412.379C200.277,414.089 201.515,416.173 203.462,416.173L225.273,416.173C227.159,416.173 228.689,414.643 228.689,412.756L228.689,381.174C228.689,379.288 227.159,377.758 225.273,377.758L206.237,377.758C204.399,377.758 203.157,379.633 203.874,381.325L206.018,386.39Z" style="fill:rgb(254,90,0);fill-rule:nonzero;"/>
        <path d="M254.229,386.39C251.632,392.678 252.071,399.81 255.421,405.731L259.039,412.379C259.97,414.089 258.732,416.173 256.785,416.173L234.975,416.173C233.088,416.173 231.559,414.643 231.559,412.756L231.559,381.174C231.559,379.288 233.088,377.758 234.975,377.758L254.01,377.758C255.848,377.758 257.09,379.633 256.374,381.325L254.229,386.39Z" style="fill:rgb(254,90,0);fill-rule:nonzero;"/>
        <path d="M228.995,396.974C228.995,396.974 223.393,402.236 220.677,417.005" style="fill:none;stroke:rgb(255,242,221);stroke-width:3.06px;"/>
        <path d="M218.64,414.131L224.252,415.152" style="fill:none;stroke:rgb(255,242,221);stroke-width:3.06px;"/>
        <path d="M232.039,396.974C232.039,396.974 237.641,402.236 240.357,417.005" style="fill:none;stroke:rgb(255,242,221);stroke-width:3.06px;"/>
        <path d="M242.394,414.131L236.783,415.152" style="fill:none;stroke:rgb(255,242,221);stroke-width:3.06px;"/>
        <path d="M217.698,396.388L207.692,394.871C207.69,396.305 207.542,397.735 207.263,399.144L217.734,397.418C218.884,397.228 218.861,396.565 217.698,396.388Z" style="fill:rgb(73,28,14);fill-rule:nonzero;"/>
        <path d="M242.629,397.418L252.98,399.124C252.705,397.727 252.558,396.31 252.555,394.889L242.665,396.388C241.502,396.565 241.479,397.228 242.629,397.418Z" style="fill:rgb(73,28,14);fill-rule:nonzero;"/>
        <path d="M235.866,395.715C235.866,392.584 233.328,390.046 230.197,390.046C227.066,390.046 224.527,392.584 224.527,395.715C224.527,398.846 227.066,401.385 230.197,401.385C233.328,401.385 235.866,398.846 235.866,395.715Z" style="fill:rgb(73,28,14);fill-rule:nonzero;"/>
        <path d="M196.805,355.331L262.356,355.331" style="fill:none;fill-rule:nonzero;"/>
        <path d="M196.805,355.331L262.356,355.331" style="fill:none;stroke:rgb(73,28,14);stroke-width:2.04px;"/>
    </g>
</svg>
