<?xml version="1.0" encoding="UTF-8" standalone="no"?>
<!DOCTYPE svg PUBLIC "-//W3C//DTD SVG 1.1//EN" "http://www.w3.org/Graphics/SVG/1.1/DTD/svg11.dtd">
<svg width="100%" height="100%" viewBox="0 0 74 104" version="1.1" xmlns="http://www.w3.org/2000/svg" xmlns:xlink="http://www.w3.org/1999/xlink" xml:space="preserve" xmlns:serif="http://www.serif.com/" style="fill-rule:evenodd;clip-rule:evenodd;stroke-linecap:round;stroke-linejoin:round;stroke-miterlimit:10;">
    <g transform="matrix(1,0,0,1,-375.83,-192.987)">
        <g transform="matrix(1,0,0,1,337.5,168.75)">
            <g id="Graphic">
                <g transform="matrix(1,0,0,1,94.5259,68.0288)">
                    <path d="M0,15.48C-2.87,10.407 -3.247,4.296 -1.021,-1.091L15.002,-38.936C15.669,-40.513 14.512,-42.26 12.799,-42.26L-51.457,-42.26C-53.169,-42.26 -54.327,-40.513 -53.66,-38.936L-37.634,-1.086C-35.41,4.298 -35.787,10.405 -38.655,15.475L-53.266,42.32C-53.979,43.581 -54.492,44.963 -54.623,46.406C-55.155,52.278 -50.52,57.74 -44.165,57.74L5.507,57.74C11.862,57.74 16.498,52.278 15.965,46.406C15.835,44.963 15.321,43.581 14.608,42.32L0,15.48Z" style="fill:rgb(255,251,235);fill-rule:nonzero;stroke:rgb(97,67,59);stroke-width:3.06px;"/>
                </g>
                <g transform="matrix(1,0,0,1,41.2603,107.062)">
                    <path d="M0,3.287C-0.713,4.548 -1.227,5.93 -1.357,7.373C-1.89,13.245 2.746,18.707 9.101,18.707L58.773,18.707C65.128,18.707 69.763,13.245 69.231,7.373C69.1,5.93 68.587,4.548 67.874,3.287L58.525,-13.889L10.182,-15.42L0,3.287Z" style="fill:rgb(97,67,59);fill-rule:nonzero;"/>
                </g>
                <g transform="matrix(1,0,0,1,51.0186,84.5406)">
                    <path d="M0,-21.15C2.598,-14.862 2.158,-7.73 -1.192,-1.809L-4.81,4.839C-5.741,6.549 -4.503,8.632 -2.556,8.632L19.254,8.632C21.141,8.632 22.671,7.103 22.671,5.216L22.671,-26.366C22.671,-28.253 21.141,-29.782 19.254,-29.782L0.219,-29.782C-1.619,-29.782 -2.861,-27.907 -2.145,-26.215L0,-21.15Z" style="fill:rgb(167,243,208);fill-rule:nonzero;"/>
                </g>
                <g transform="matrix(1,0,0,1,99.2295,84.5406)">
                    <path d="M0,-21.15C-2.598,-14.862 -2.158,-7.73 1.192,-1.809L4.81,4.839C5.741,6.549 4.503,8.632 2.556,8.632L-19.254,8.632C-21.141,8.632 -22.67,7.103 -22.67,5.216L-22.67,-26.366C-22.67,-28.253 -21.141,-29.782 -19.254,-29.782L-0.219,-29.782C1.619,-29.782 2.861,-27.907 2.145,-26.215L0,-21.15Z" style="fill:rgb(167,243,208);fill-rule:nonzero;"/>
                </g>
                <g transform="matrix(-0.383505,0.923539,0.923539,0.383505,77.4913,91.6716)">
                    <path d="M-15.004,-10.016C-15.004,-10.016 -7.996,-13.171 6.686,-10.016" style="fill:none;fill-rule:nonzero;stroke:rgb(255,251,235);stroke-width:3.06px;"/>
                </g>
                <g transform="matrix(0.983845,0.179024,0.179024,-0.983845,63.7773,90.6369)">
                    <path d="M-0.046,-0.51L5.657,-0.51" style="fill:none;fill-rule:nonzero;stroke:rgb(255,251,235);stroke-width:3.06px;"/>
                </g>
                <g transform="matrix(0.383505,0.923539,0.923539,-0.383505,88.8533,76.3076)">
                    <path d="M-6.686,-10.016C-6.686,-10.016 0.322,-6.86 15.004,-10.016" style="fill:none;fill-rule:nonzero;stroke:rgb(255,251,235);stroke-width:3.06px;"/>
                </g>
                <g transform="matrix(-0.983845,0.179024,0.179024,0.983845,81.9202,92.6459)">
                    <path d="M-5.657,-0.51L0.046,-0.51" style="fill:none;fill-rule:nonzero;stroke:rgb(255,251,235);stroke-width:3.06px;"/>
                </g>
                <g transform="matrix(-0.988702,-0.149896,-0.149896,0.988702,53.4082,73.9264)">
                    <path d="M-9.105,-1.924L1.015,-1.924C0.802,-0.506 0.734,0.93 0.8,2.364L-9.295,-0.912C-10.403,-1.272 -10.281,-1.924 -9.105,-1.924" style="fill:rgb(97,67,59);fill-rule:nonzero;"/>
                </g>
                <g transform="matrix(0.986691,0.162606,0.162606,-0.986691,87.6237,73.6644)">
                    <path d="M0.128,-0.743L10.62,-0.743C10.12,0.59 9.745,1.964 9.511,3.367L-0.004,0.278C-1.123,-0.084 -1.037,-0.743 0.128,-0.743" style="fill:rgb(97,67,59);fill-rule:nonzero;"/>
                </g>
                <g transform="matrix(0,-1,-1,0,75.1972,67.0468)">
                    <path d="M-5.669,-5.669C-2.538,-5.669 0,-3.131 0,0C0,3.131 -2.538,5.669 -5.669,5.669C-8.8,5.669 -11.338,3.131 -11.338,0C-11.338,-3.131 -8.8,-5.669 -5.669,-5.669" style="fill:rgb(97,67,59);fill-rule:nonzero;"/>
                </g>
                <g transform="matrix(1,0,0,1,41.8052,32.332)">
                    <path d="M0,0L65.552,0" style="fill:none;fill-rule:nonzero;stroke:rgb(97,67,59);stroke-width:2.04px;"/>
                </g>
            </g>
        </g>
    </g>
</svg>
