<?xml version="1.0" encoding="UTF-8" standalone="no"?>
<!DOCTYPE svg PUBLIC "-//W3C//DTD SVG 1.1//EN" "http://www.w3.org/Graphics/SVG/1.1/DTD/svg11.dtd">
<svg width="100%" height="100%" viewBox="0 0 59 108" version="1.1" xmlns="http://www.w3.org/2000/svg" xmlns:xlink="http://www.w3.org/1999/xlink" xml:space="preserve" xmlns:serif="http://www.serif.com/" style="fill-rule:evenodd;clip-rule:evenodd;stroke-linecap:round;stroke-linejoin:round;stroke-miterlimit:2;">
    <g transform="matrix(1,0,0,1,-728.132,-519.688)">
        <path d="M784.468,615.909L772.301,583.586L772.301,560.804L741.7,560.804L741.7,583.586L729.925,615.909C728.542,620.816 732.23,625.688 737.329,625.688L777.064,625.688C782.163,625.688 785.851,620.816 784.468,615.909Z" style="fill:rgb(255,242,221);fill-rule:nonzero;"/>
        <path d="M784.468,615.909L772.301,583.586L772.301,560.804L741.7,560.804L741.7,583.586L729.925,615.909C728.542,620.816 732.23,625.688 737.329,625.688L777.064,625.688C782.163,625.688 785.851,620.816 784.468,615.909Z" style="fill:none;stroke:rgb(73,28,14);stroke-width:3px;"/>
        <path d="M746.657,560.804L739.384,531.039L775.443,531.039L767.588,560.804" style="fill:rgb(255,242,221);fill-rule:nonzero;"/>
        <path d="M746.657,560.804L739.384,531.039L775.443,531.039L767.588,560.804" style="fill:none;stroke:rgb(73,28,14);stroke-width:3px;"/>
        <path d="M737.329,625.688L777.064,625.688C782.163,625.688 785.851,620.816 784.468,615.909L779.812,599.925L779.812,599.924L734.431,599.924L729.925,615.909C728.542,620.816 732.23,625.688 737.329,625.688Z" style="fill:rgb(73,28,14);fill-rule:nonzero;"/>
        <path d="M760.541,551.443L756.585,551.443C755.973,551.443 755.477,550.947 755.477,550.335L755.477,546.379C755.477,545.767 755.973,545.271 756.585,545.271L760.541,545.271C761.153,545.271 761.649,545.767 761.649,546.379L761.649,550.335C761.649,550.947 761.153,551.443 760.541,551.443Z" style="fill:rgb(255,242,221);fill-rule:nonzero;"/>
        <path d="M760.541,551.443L756.585,551.443C755.973,551.443 755.477,550.947 755.477,550.335L755.477,546.379C755.477,545.767 755.973,545.271 756.585,545.271L760.541,545.271C761.153,545.271 761.649,545.767 761.649,546.379L761.649,550.335C761.649,550.947 761.153,551.443 760.541,551.443Z" style="fill:none;stroke:rgb(73,28,14);stroke-width:2px;"/>
        <path d="M755.912,557.616L751.956,557.616C751.344,557.616 750.848,557.12 750.848,556.508L750.848,552.552C750.848,551.94 751.344,551.443 751.956,551.443L755.912,551.443C756.524,551.443 757.02,551.94 757.02,552.552L757.02,556.508C757.02,557.12 756.524,557.616 755.912,557.616Z" style="fill:rgb(255,242,221);fill-rule:nonzero;"/>
        <path d="M755.912,557.616L751.956,557.616C751.344,557.616 750.848,557.12 750.848,556.508L750.848,552.552C750.848,551.94 751.344,551.443 751.956,551.443L755.912,551.443C756.524,551.443 757.02,551.94 757.02,552.552L757.02,556.508C757.02,557.12 756.524,557.616 755.912,557.616Z" style="fill:none;stroke:rgb(73,28,14);stroke-width:2px;"/>
        <path d="M763.592,557.616L759.636,557.616C759.024,557.616 758.528,557.12 758.528,556.508L758.528,552.552C758.528,551.94 759.024,551.443 759.636,551.443L763.592,551.443C764.204,551.443 764.7,551.94 764.7,552.552L764.7,556.508C764.7,557.12 764.204,557.616 763.592,557.616Z" style="fill:rgb(255,242,221);fill-rule:nonzero;"/>
        <path d="M763.592,557.616L759.636,557.616C759.024,557.616 758.528,557.12 758.528,556.508L758.528,552.552C758.528,551.94 759.024,551.443 759.636,551.443L763.592,551.443C764.204,551.443 764.7,551.94 764.7,552.552L764.7,556.508C764.7,557.12 764.204,557.616 763.592,557.616Z" style="fill:none;stroke:rgb(73,28,14);stroke-width:2px;"/>
        <path d="M764.64,573.954L767.879,560.804L746.948,560.804L750.206,573.954L764.64,573.954Z" style="fill:rgb(73,28,14);fill-rule:nonzero;"/>
        <path d="M764.64,573.954L767.879,560.804L746.948,560.804L750.206,573.954L764.64,573.954Z" style="fill:none;stroke:rgb(73,28,14);stroke-width:3px;"/>
        <path d="M766.116,519.688L750.116,519.688C749.153,519.688 748.324,520.37 748.14,521.315L747.156,526.361L769.076,526.361L768.092,521.315C767.907,520.37 767.079,519.688 766.116,519.688Z" style="fill:rgb(254,90,0);fill-rule:nonzero;"/>
        <path d="M748.048,522.472L747.156,527.045L769.076,527.045L768.184,522.472L748.048,522.472Z" style="fill:rgb(73,28,14);fill-rule:nonzero;"/>
        <path d="M775.842,563.165L736.617,563.165C735.937,563.165 735.386,562.614 735.386,561.934L735.386,558.116C735.386,557.436 735.937,556.885 736.617,556.885L775.842,556.885C776.522,556.885 777.073,557.436 777.073,558.116L777.073,561.934C777.073,562.614 776.522,563.165 775.842,563.165Z" style="fill:rgb(254,90,0);fill-rule:nonzero;"/>
        <path d="M781.272,531.039L733.121,531.039C732.37,531.039 731.761,530.43 731.761,529.679C731.761,526.961 733.964,524.758 736.682,524.758L777.712,524.758C780.43,524.758 782.632,526.961 782.632,529.679C782.632,530.43 782.024,531.039 781.272,531.039Z" style="fill:rgb(254,90,0);fill-rule:nonzero;"/>
        <path d="M739.821,532.022L773.461,536.305L775.193,532.022L739.821,532.022Z" style="fill:rgb(73,28,14);fill-rule:nonzero;"/>
        <path d="M761.409,590.339C761.409,588.184 757.507,582.131 757.507,582.131C757.507,582.131 753.605,588.184 753.605,590.339C753.605,592.494 755.352,594.241 757.507,594.241C759.662,594.241 761.409,592.494 761.409,590.339Z" style="fill:rgb(254,90,0);fill-rule:nonzero;"/>
    </g>
</svg>
