<?xml version="1.0" encoding="UTF-8" standalone="no"?>
<!DOCTYPE svg PUBLIC "-//W3C//DTD SVG 1.1//EN" "http://www.w3.org/Graphics/SVG/1.1/DTD/svg11.dtd">
<svg width="100%" height="100%" viewBox="0 0 78 106" version="1.1" xmlns="http://www.w3.org/2000/svg" xmlns:xlink="http://www.w3.org/1999/xlink" xml:space="preserve" xmlns:serif="http://www.serif.com/" style="fill-rule:evenodd;clip-rule:evenodd;stroke-linecap:round;stroke-linejoin:round;stroke-miterlimit:10;">
    <g transform="matrix(1,0,0,1,-715.662,-184.962)">
        <g transform="matrix(1,0,0,1,675,168.75)">
            <g id="Graphic">
                <g transform="matrix(0,1,1,0,81.4887,32.3271)">
                    <path d="M-9.955,-9.955L9.955,-9.955" style="fill:none;fill-rule:nonzero;stroke:rgb(97,67,59);stroke-width:3px;"/>
                </g>
                <g transform="matrix(0,-1,-1,0,71.5338,16.2121)">
                    <path d="M-6.161,-6.162C-9.564,-6.162 -12.323,-3.403 -12.323,-0.001C-12.323,3.403 -9.564,6.161 -6.161,6.161C-2.759,6.161 0,3.403 0,-0.001C0,-3.403 -2.759,-6.162 -6.161,-6.162" style="fill:rgb(97,67,59);fill-rule:nonzero;"/>
                </g>
                <g transform="matrix(1,0,0,1,94.708,92.5812)">
                    <path d="M0,-41.547L15.052,-41.547C17.877,-41.547 20.168,-39.256 20.168,-36.431L20.168,-5.116C20.168,-2.291 17.877,0 15.052,0L1.276,0" style="fill:none;fill-rule:nonzero;stroke:rgb(97,67,59);stroke-width:6px;stroke-linecap:butt;"/>
                </g>
                <g transform="matrix(1,0,0,1,96.374,51.0342)">
                    <path d="M0,0L4.941,0" style="fill:none;fill-rule:nonzero;stroke:rgb(167,243,208);stroke-width:6px;stroke-linecap:butt;"/>
                </g>
                <g transform="matrix(1,0,0,1,96.374,92.5811)">
                    <path d="M0,0L4.941,0" style="fill:none;fill-rule:nonzero;stroke:rgb(167,243,208);stroke-width:6px;stroke-linecap:butt;"/>
                </g>
                <g transform="matrix(1,0,0,1,80.7725,46.0298)">
                    <path d="M0,-13.354L-19.63,-13.354C-26.761,-13.354 -32.542,-7.573 -32.542,-0.442L-32.542,0L12.912,0L12.912,-0.442C12.912,-7.573 7.131,-13.354 0,-13.354Z" style="fill:rgb(167,243,208);fill-rule:nonzero;stroke:rgb(167,243,208);stroke-width:3px;"/>
                </g>
                <g transform="matrix(1,0,0,1,42.1621,118.224)">
                    <path d="M0,-72.194L5.088,-60.846L5.088,0L53.489,0L53.489,-72.194L0,-72.194Z" style="fill:rgb(255,251,235);fill-rule:nonzero;"/>
                </g>
                <g>
                    <clipPath id="_clip1">
                        <path d="M42.162,46.03L47.25,57.378L47.25,118.225L95.651,118.225L95.651,46.03L42.162,46.03Z" clip-rule="nonzero"/>
                    </clipPath>
                    <g clip-path="url(#_clip1)">
                        <g transform="matrix(-1,0,0,1,142.901,37.904)">
                            <rect x="47.25" y="28.947" width="48.401" height="54.202" style="fill:rgb(97,67,59);"/>
                        </g>
                        <g transform="matrix(0,-1,-1,0,84.1122,58.9088)">
                            <path d="M-12.662,12.662L12.662,12.662" style="fill:none;fill-rule:nonzero;stroke:rgb(97,67,59);stroke-width:3px;"/>
                        </g>
                        <g transform="matrix(0,-1,-1,0,84.5252,82.9377)">
                            <path d="M-13.075,13.075L13.075,13.075" style="fill:none;fill-rule:nonzero;stroke:rgb(255,251,235);stroke-width:3px;"/>
                        </g>
                        <g transform="matrix(1,0,0,1,93.8936,92.8774)">
                            <path d="M0,6.271L-44.886,6.271L-44.886,3.692C-44.886,1.653 -43.232,0 -41.193,0L-3.692,0C-1.653,0 0,1.653 0,3.692L0,6.271Z" style="fill:rgb(167,243,208);fill-rule:nonzero;"/>
                        </g>
                    </g>
                </g>
                <g transform="matrix(1,0,0,1,42.1621,118.224)">
                    <path d="M0,-72.194L5.088,-60.846L5.088,0L53.489,0L53.489,-72.194L0,-72.194Z" style="fill:none;fill-rule:nonzero;stroke:rgb(97,67,59);stroke-width:3px;"/>
                </g>
                <g transform="matrix(1,0,0,1,98.4141,116.338)">
                    <path d="M0,5.873L-54.512,5.873C-55.753,5.873 -56.759,4.867 -56.759,3.626L-56.759,2.247C-56.759,1.006 -55.753,0 -54.512,0L0,0C1.24,0 2.246,1.006 2.246,2.247L2.246,3.626C2.246,4.867 1.24,5.873 0,5.873" style="fill:rgb(167,243,208);fill-rule:nonzero;"/>
                </g>
            </g>
        </g>
    </g>
</svg>
