<?xml version="1.0" encoding="UTF-8" standalone="no"?>
<!DOCTYPE svg PUBLIC "-//W3C//DTD SVG 1.1//EN" "http://www.w3.org/Graphics/SVG/1.1/DTD/svg11.dtd">
<svg width="100%" height="100%" viewBox="0 0 85 108" version="1.1" xmlns="http://www.w3.org/2000/svg" xmlns:xlink="http://www.w3.org/1999/xlink" xml:space="preserve" xmlns:serif="http://www.serif.com/" style="fill-rule:evenodd;clip-rule:evenodd;stroke-linecap:round;stroke-linejoin:round;stroke-miterlimit:10;">
    <g transform="matrix(1,0,0,1,-881.917,-354.315)">
        <g transform="matrix(1,0,0,1,843.75,337.5)">
            <g id="Graphic">
                <g transform="matrix(-1,0,0,1,50.5881,53.3341)">
                    <path d="M-31.949,-28.921L0,-28.921L-4.155,0L-27.794,0L-31.949,-28.921Z" style="fill:rgb(255,251,235);fill-rule:nonzero;stroke:rgb(97,67,59);stroke-width:3px;"/>
                </g>
                <g transform="matrix(1,0,0,1,53.9551,87.4332)">
                    <path d="M0,34.953L25.215,34.953C28.67,34.953 31.242,31.739 30.512,28.337L24.427,0L0.788,0L-5.297,28.337C-6.028,31.739 -3.455,34.953 0,34.953Z" style="fill:rgb(255,251,235);fill-rule:nonzero;stroke:rgb(97,67,59);stroke-width:3px;"/>
                </g>
                <g transform="matrix(0,-1,-1,0,70.3015,46.263)">
                    <path d="M-3.739,3.739L3.739,3.739" style="fill:none;fill-rule:nonzero;stroke:rgb(97,67,59);stroke-width:2px;"/>
                </g>
                <g transform="matrix(1,0,0,1,63.2998,42.5239)">
                    <path d="M0,0L6.524,0" style="fill:none;fill-rule:nonzero;stroke:rgb(97,67,59);stroke-width:2px;"/>
                </g>
                <g transform="matrix(1,0,0,1,77.7227,54.8134)">
                    <path d="M0,28.025L-35.542,28.025C-37.759,28.025 -39.556,26.228 -39.556,24.011L-39.556,4.014C-39.556,1.797 -37.759,0 -35.542,0L0,0C3.858,0 6.986,3.128 6.986,6.986L6.986,21.039C6.986,24.898 3.858,28.025 0,28.025" style="fill:rgb(167,243,208);fill-rule:nonzero;"/>
                </g>
                <g transform="matrix(1,0,0,1,115.893,54.8134)">
                    <path d="M0,28.025L-32.569,28.025C-36.428,28.025 -39.556,24.898 -39.556,21.039L-39.556,6.986C-39.556,3.128 -36.428,0 -32.569,0L0,0C3.858,0 6.986,3.128 6.986,6.986L6.986,21.039C6.986,24.898 3.858,28.025 0,28.025" style="fill:rgb(167,243,208);fill-rule:nonzero;"/>
                </g>
                <g transform="matrix(1,0,0,1,54.2432,49.2342)">
                    <path d="M0,40.154L24.639,40.154C25.821,40.154 26.779,39.196 26.779,38.013L26.779,2.142C26.779,0.959 25.821,0 24.639,0L0,0C-1.183,0 -2.141,0.959 -2.141,2.142L-2.141,38.013C-2.141,39.196 -1.183,40.154 0,40.154" style="fill:rgb(167,243,208);fill-rule:nonzero;"/>
                </g>
                <g transform="matrix(1,0,0,1,45.2861,82.8385)">
                    <path d="M0,-28.025L-3.105,-28.025C-5.321,-28.025 -7.119,-26.228 -7.119,-24.011L-7.119,-4.014C-7.119,-1.797 -5.321,0 -3.105,0L0,0L0,-28.025Z" style="fill:rgb(97,67,59);fill-rule:nonzero;"/>
                </g>
                <g transform="matrix(0,1,1,0,53.6865,59.4275)">
                    <path d="M-4.614,-1.584L0.96,-1.584C1.458,-1.584 1.584,-2.276 1.117,-2.452L-4.614,-4.614L-4.614,-1.584Z" style="fill:rgb(97,67,59);fill-rule:nonzero;"/>
                </g>
                <g transform="matrix(0,-1,-1,0,53.6865,78.2244)">
                    <path d="M-4.614,1.584L0.96,1.584C1.458,1.584 1.584,2.276 1.118,2.452L-4.614,4.614L-4.614,1.584Z" style="fill:rgb(97,67,59);fill-rule:nonzero;"/>
                </g>
                <g transform="matrix(0,1,1,0,85.636,56.398)">
                    <path d="M-1.584,-4.614L3.99,-4.614C4.488,-4.614 4.614,-3.923 4.147,-3.745L-1.584,-1.585L-1.584,-4.614Z" style="fill:rgb(97,67,59);fill-rule:nonzero;"/>
                </g>
                <g transform="matrix(0,-1,-1,0,85.636,81.2539)">
                    <path d="M-1.584,4.614L3.99,4.614C4.488,4.614 4.614,3.923 4.148,3.745L-1.584,1.585L-1.584,4.614Z" style="fill:rgb(97,67,59);fill-rule:nonzero;"/>
                </g>
                <g transform="matrix(1,0,0,1,46.7578,24.4131)">
                    <path d="M0,0L39.13,0" style="fill:none;fill-rule:nonzero;stroke:rgb(97,67,59);stroke-width:3px;"/>
                </g>
                <g transform="matrix(1,0,0,1,49.6572,119.294)">
                    <path d="M0,-8.179L14.006,-14.293C15.71,-15.037 17.639,-15.081 19.376,-14.416L33.644,-8.953C33.644,-8.953 40.203,3.092 24.311,3.092C8.418,3.092 -3.238,6.902 0,-8.179" style="fill:rgb(97,67,59);fill-rule:nonzero;"/>
                </g>
                <g transform="matrix(1,0,0,1,50.5879,16.8151)">
                    <path d="M0,7.598L0,2.356C0,1.055 1.054,0 2.355,0L29.594,0C30.895,0 31.949,1.055 31.949,2.356L31.949,7.598L0,7.598Z" style="fill:rgb(97,67,59);fill-rule:nonzero;"/>
                </g>
                <g transform="matrix(1,0,0,1,42.5381,122.386)">
                    <path d="M0,0L55.114,0" style="fill:none;fill-rule:nonzero;stroke:rgb(167,243,208);stroke-width:3px;"/>
                </g>
                <g transform="matrix(-1,0,0,1,93.9441,73.9812)">
                    <path d="M-24.552,48.405L0,48.405L-3.452,0L-21.1,0L-24.552,48.405Z" style="fill:rgb(167,243,208);fill-rule:nonzero;stroke:rgb(167,243,208);stroke-width:3px;"/>
                </g>
                <g transform="matrix(1,0,0,1,95.0947,90.2214)">
                    <path d="M0,-7.383L22.205,-7.383L-0.64,0L0,-7.383Z" style="fill:rgb(97,67,59);fill-rule:nonzero;"/>
                </g>
                <g transform="matrix(1,0,0,1,106.731,97.4464)">
                    <path d="M0,11.765C-1.266,11.765 -2.302,10.729 -2.302,9.463L-2.302,2.302C-2.302,1.036 -1.266,0 0,0C1.267,0 2.302,1.036 2.302,2.302L2.302,9.463C2.302,10.729 1.267,11.765 0,11.765" style="fill:rgb(97,67,59);fill-rule:nonzero;"/>
                </g>
                <g transform="matrix(1,0,0,1,100.023,65.992)">
                    <path d="M0,4.987C-0.527,4.987 -0.959,4.555 -0.959,4.028L-0.959,0.959C-0.959,0.431 -0.527,0 0,0C0.527,0 0.959,0.431 0.959,0.959L0.959,4.028C0.959,4.555 0.527,4.987 0,4.987" style="fill:rgb(97,67,59);fill-rule:nonzero;"/>
                </g>
                <g transform="matrix(1,0,0,1,107.265,65.992)">
                    <path d="M0,4.987C-0.527,4.987 -0.959,4.555 -0.959,4.028L-0.959,0.959C-0.959,0.431 -0.527,0 0,0C0.527,0 0.959,0.431 0.959,0.959L0.959,4.028C0.959,4.555 0.527,4.987 0,4.987" style="fill:rgb(97,67,59);fill-rule:nonzero;"/>
                </g>
                <g transform="matrix(1,0,0,1,114.506,65.992)">
                    <path d="M0,4.987C-0.527,4.987 -0.959,4.555 -0.959,4.028L-0.959,0.959C-0.959,0.431 -0.527,0 0,0C0.527,0 0.959,0.431 0.959,0.959L0.959,4.028C0.959,4.555 0.527,4.987 0,4.987" style="fill:rgb(97,67,59);fill-rule:nonzero;"/>
                </g>
                <g transform="matrix(0,-1,-1,0,55.613,52.3064)">
                    <path d="M-0.927,-0.927C-1.439,-0.927 -1.854,-0.512 -1.854,0C-1.854,0.511 -1.439,0.927 -0.927,0.927C-0.415,0.927 0,0.511 0,0C0,-0.512 -0.415,-0.927 -0.927,-0.927" style="fill:rgb(255,251,235);fill-rule:nonzero;"/>
                </g>
                <g transform="matrix(0,-1,-1,0,77.2644,52.3064)">
                    <path d="M-0.927,-0.927C-1.439,-0.927 -1.854,-0.512 -1.854,0.001C-1.854,0.512 -1.439,0.927 -0.927,0.927C-0.415,0.927 0,0.512 0,0.001C0,-0.512 -0.415,-0.927 -0.927,-0.927" style="fill:rgb(255,251,235);fill-rule:nonzero;"/>
                </g>
                <g transform="matrix(0,-1,-1,0,55.613,84.676)">
                    <path d="M-0.927,-0.927C-1.439,-0.927 -1.854,-0.512 -1.854,0C-1.854,0.511 -1.439,0.927 -0.927,0.927C-0.415,0.927 0,0.511 0,0C0,-0.512 -0.415,-0.927 -0.927,-0.927" style="fill:rgb(255,251,235);fill-rule:nonzero;"/>
                </g>
                <g transform="matrix(0,-1,-1,0,77.2644,84.676)">
                    <path d="M-0.927,-0.927C-1.439,-0.927 -1.854,-0.512 -1.854,0.001C-1.854,0.512 -1.439,0.927 -0.927,0.927C-0.415,0.927 0,0.512 0,0.001C0,-0.512 -0.415,-0.927 -0.927,-0.927" style="fill:rgb(255,251,235);fill-rule:nonzero;"/>
                </g>
            </g>
        </g>
    </g>
</svg>
