<?xml version="1.0" encoding="UTF-8" standalone="no"?>
<!DOCTYPE svg PUBLIC "-//W3C//DTD SVG 1.1//EN" "http://www.w3.org/Graphics/SVG/1.1/DTD/svg11.dtd">
<svg width="100%" height="100%" viewBox="0 0 85 108" version="1.1" xmlns="http://www.w3.org/2000/svg" xmlns:xlink="http://www.w3.org/1999/xlink" xml:space="preserve" xmlns:serif="http://www.serif.com/" style="fill-rule:evenodd;clip-rule:evenodd;stroke-linecap:round;stroke-linejoin:round;stroke-miterlimit:2;">
    <g transform="matrix(1,0,0,1,-543.166,-689.815)">
        <path d="M587.537,697.413L555.587,697.413L559.742,726.333L583.382,726.333L587.537,697.413Z" style="fill:rgb(255,242,221);fill-rule:nonzero;"/>
        <path d="M587.537,697.413L555.587,697.413L559.742,726.333L583.382,726.333L587.537,697.413Z" style="fill:none;stroke:rgb(73,28,14);stroke-width:3px;"/>
        <path d="M558.955,795.386L584.169,795.386C587.624,795.386 590.197,792.172 589.467,788.77L583.382,760.433L559.742,760.433L553.657,788.77C552.927,792.172 555.5,795.386 558.955,795.386Z" style="fill:rgb(255,242,221);fill-rule:nonzero;"/>
        <path d="M558.955,795.386L584.169,795.386C587.624,795.386 590.197,792.172 589.467,788.77L583.382,760.433L559.742,760.433L553.657,788.77C552.927,792.172 555.5,795.386 558.955,795.386Z" style="fill:none;stroke:rgb(73,28,14);stroke-width:3px;"/>
        <path d="M571.562,723.001L571.562,715.524" style="fill:none;fill-rule:nonzero;"/>
        <path d="M571.562,723.001L571.562,715.524" style="fill:none;stroke:rgb(73,28,14);stroke-width:2px;"/>
        <path d="M568.3,715.524L574.824,715.524" style="fill:none;fill-rule:nonzero;"/>
        <path d="M568.3,715.524L574.824,715.524" style="fill:none;stroke:rgb(73,28,14);stroke-width:2px;"/>
        <path d="M582.723,755.838L547.181,755.838C544.964,755.838 543.167,754.041 543.167,751.824L543.167,731.827C543.167,729.61 544.964,727.813 547.181,727.813L582.723,727.813C586.581,727.813 589.709,730.941 589.709,734.799L589.709,748.852C589.709,752.71 586.581,755.838 582.723,755.838Z" style="fill:rgb(255,90,0);fill-rule:nonzero;"/>
        <path d="M620.892,755.838L588.322,755.838C584.464,755.838 581.336,752.71 581.336,748.852L581.336,734.799C581.336,730.941 584.464,727.813 588.322,727.813L620.892,727.813C624.751,727.813 627.878,730.941 627.878,734.799L627.878,748.852C627.878,752.71 624.751,755.838 620.892,755.838Z" style="fill:rgb(255,90,0);fill-rule:nonzero;"/>
        <path d="M559.243,762.388L583.881,762.388C585.064,762.388 586.022,761.429 586.022,760.247L586.022,724.375C586.022,723.193 585.064,722.234 583.881,722.234L559.243,722.234C558.06,722.234 557.102,723.193 557.102,724.375L557.102,760.247C557.102,761.429 558.06,762.388 559.243,762.388Z" style="fill:rgb(255,90,0);fill-rule:nonzero;"/>
        <path d="M550.286,727.813L547.18,727.813C544.964,727.813 543.166,729.61 543.166,731.827L543.166,751.824C543.166,754.041 544.964,755.838 547.18,755.838L550.286,755.838L550.286,727.813Z" style="fill:rgb(73,28,14);fill-rule:nonzero;"/>
        <path d="M557.102,727.813L557.102,733.387C557.102,733.885 556.41,734.011 556.234,733.545L554.072,727.813L557.102,727.813Z" style="fill:rgb(73,28,14);fill-rule:nonzero;"/>
        <path d="M557.102,755.838L557.102,750.264C557.102,749.766 556.41,749.64 556.234,750.106L554.072,755.838L557.102,755.838Z" style="fill:rgb(73,28,14);fill-rule:nonzero;"/>
        <path d="M586.022,727.813L586.022,733.387C586.022,733.885 586.714,734.011 586.89,733.545L589.052,727.813L586.022,727.813Z" style="fill:rgb(73,28,14);fill-rule:nonzero;"/>
        <path d="M586.022,755.838L586.022,750.264C586.022,749.766 586.714,749.64 586.89,750.106L589.052,755.838L586.022,755.838Z" style="fill:rgb(73,28,14);fill-rule:nonzero;"/>
        <path d="M551.757,697.413L590.887,697.413" style="fill:none;fill-rule:nonzero;"/>
        <path d="M551.757,697.413L590.887,697.413" style="fill:none;stroke:rgb(73,28,14);stroke-width:3px;"/>
        <path d="M554.657,784.115L568.663,778.001C570.367,777.257 572.296,777.213 574.033,777.878L588.301,783.341C588.301,783.341 594.86,795.386 578.967,795.386C563.074,795.386 551.418,799.196 554.657,784.115Z" style="fill:rgb(73,28,14);fill-rule:nonzero;"/>
        <path d="M555.587,697.413L555.587,692.171C555.587,690.87 556.642,689.815 557.943,689.815L585.181,689.815C586.482,689.815 587.537,690.87 587.537,692.171L587.537,697.413L555.587,697.413Z" style="fill:rgb(73,28,14);fill-rule:nonzero;"/>
        <path d="M547.537,795.386L602.652,795.386" style="fill:none;stroke:rgb(255,90,0);stroke-width:3px;"/>
        <path d="M623.496,795.386L598.944,795.386L602.396,746.981L620.043,746.981L623.496,795.386Z" style="fill:rgb(255,90,0);fill-rule:nonzero;"/>
        <path d="M623.496,795.386L598.944,795.386L602.396,746.981L620.043,746.981L623.496,795.386Z" style="fill:none;stroke:rgb(255,90,0);stroke-width:3px;"/>
        <path d="M600.094,755.838L622.3,755.838L599.455,763.221L600.094,755.838Z" style="fill:rgb(73,28,14);fill-rule:nonzero;"/>
        <path d="M611.731,782.211C610.465,782.211 609.429,781.175 609.429,779.909L609.429,772.748C609.429,771.482 610.465,770.446 611.731,770.446C612.997,770.446 614.033,771.482 614.033,772.748L614.033,779.909C614.033,781.175 612.997,782.211 611.731,782.211Z" style="fill:rgb(73,28,14);fill-rule:nonzero;"/>
        <path d="M605.023,743.979C604.496,743.979 604.064,743.547 604.064,743.02L604.064,739.951C604.064,739.423 604.496,738.992 605.023,738.992C605.551,738.992 605.982,739.423 605.982,739.951L605.982,743.02C605.982,743.547 605.551,743.979 605.023,743.979Z" style="fill:rgb(73,28,14);fill-rule:nonzero;"/>
        <path d="M612.264,743.979C611.737,743.979 611.305,743.547 611.305,743.02L611.305,739.951C611.305,739.423 611.737,738.992 612.264,738.992C612.792,738.992 613.223,739.423 613.223,739.951L613.223,743.02C613.223,743.547 612.792,743.979 612.264,743.979Z" style="fill:rgb(73,28,14);fill-rule:nonzero;"/>
        <path d="M619.505,743.979C618.978,743.979 618.546,743.547 618.546,743.02L618.546,739.951C618.546,739.423 618.978,738.992 619.505,738.992C620.033,738.992 620.464,739.423 620.464,739.951L620.464,743.02C620.464,743.547 620.033,743.979 619.505,743.979Z" style="fill:rgb(73,28,14);fill-rule:nonzero;"/>
        <path d="M561.54,726.233C561.54,726.745 561.125,727.16 560.613,727.16C560.101,727.16 559.686,726.745 559.686,726.233C559.686,725.721 560.101,725.306 560.613,725.306C561.125,725.306 561.54,725.721 561.54,726.233Z" style="fill:rgb(255,242,221);fill-rule:nonzero;"/>
        <path d="M583.191,726.233C583.191,726.745 582.776,727.16 582.264,727.16C581.752,727.16 581.336,726.745 581.336,726.233C581.336,725.721 581.752,725.306 582.264,725.306C582.776,725.306 583.191,725.721 583.191,726.233Z" style="fill:rgb(255,242,221);fill-rule:nonzero;"/>
        <path d="M561.54,758.603C561.54,759.115 561.125,759.53 560.613,759.53C560.101,759.53 559.686,759.115 559.686,758.603C559.686,758.091 560.101,757.675 560.613,757.675C561.125,757.675 561.54,758.091 561.54,758.603Z" style="fill:rgb(255,242,221);fill-rule:nonzero;"/>
        <path d="M583.191,758.603C583.191,759.115 582.776,759.53 582.264,759.53C581.752,759.53 581.336,759.115 581.336,758.603C581.336,758.091 581.752,757.675 582.264,757.675C582.776,757.675 583.191,758.091 583.191,758.603Z" style="fill:rgb(255,242,221);fill-rule:nonzero;"/>
    </g>
</svg>
