<?xml version="1.0" encoding="UTF-8" standalone="no"?>
<!DOCTYPE svg PUBLIC "-//W3C//DTD SVG 1.1//EN" "http://www.w3.org/Graphics/SVG/1.1/DTD/svg11.dtd">
<svg width="100%" height="100%" viewBox="0 0 114 72" version="1.1" xmlns="http://www.w3.org/2000/svg" xmlns:xlink="http://www.w3.org/1999/xlink" xml:space="preserve" xmlns:serif="http://www.serif.com/" style="fill-rule:evenodd;clip-rule:evenodd;stroke-linecap:round;stroke-linejoin:round;stroke-miterlimit:2;">
    <g transform="matrix(1,0,0,1,-168.648,-193.167)">
        <path d="M207.468,248.948L200.527,248.948C196.218,248.948 192.724,245.454 192.724,241.145L192.724,226.554C192.724,222.245 189.231,218.752 184.922,218.752L174.533,218.752" style="fill:none;stroke:rgb(73,28,14);stroke-width:4.02px;"/>
        <path d="M176.921,222.067L171.963,222.067C170.132,222.067 168.648,220.583 168.648,218.752C168.648,216.921 170.132,215.436 171.963,215.436L176.921,215.436C178.753,215.436 180.237,216.921 180.237,218.752C180.237,220.583 178.753,222.067 176.921,222.067Z" style="fill:rgb(255,90,0);fill-rule:nonzero;"/>
        <path d="M256.302,228.867L259.615,228.867" style="fill:none;fill-rule:nonzero;"/>
        <path d="M256.302,228.867L259.615,228.867" style="fill:none;stroke:rgb(73,28,14);stroke-width:3.02px;"/>
        <path d="M227.085,244.698L264.421,244.698" style="fill:none;fill-rule:nonzero;"/>
        <path d="M227.085,244.698L264.421,244.698" style="fill:none;stroke:rgb(73,28,14);stroke-width:3.02px;"/>
        <path d="M237.559,204.55L237.559,198.345" style="fill:none;stroke:rgb(73,28,14);stroke-width:3.02px;"/>
        <path d="M245.226,198.345L229.265,198.345C228.415,198.345 227.725,197.656 227.725,196.806L227.725,194.707C227.725,193.857 228.415,193.167 229.265,193.167L245.226,193.167C246.076,193.167 246.766,193.857 246.766,194.707L246.766,196.806C246.766,197.656 246.076,198.345 245.226,198.345Z" style="fill:rgb(74,27,15);fill-rule:nonzero;"/>
        <path d="M210.152,244.698L218.632,244.698" style="fill:none;fill-rule:nonzero;"/>
        <path d="M210.152,244.698L218.632,244.698" style="fill:none;stroke:rgb(73,28,14);stroke-width:3.02px;"/>
        <path d="M243.358,203.544L231.759,203.544C226.513,203.544 222.259,207.798 222.259,213.044L252.858,213.044C252.858,207.798 248.605,203.544 243.358,203.544Z" style="fill:rgb(255,90,0);fill-rule:nonzero;"/>
        <path d="M261.348,218.871L272.167,218.871L278.231,237.766" style="fill:none;stroke:rgb(73,28,14);stroke-width:4.02px;"/>
        <path d="M279.33,245.799C277.897,245.799 276.576,244.864 276.15,243.419L271.53,227.734C271.013,225.978 272.017,224.134 273.774,223.617C275.535,223.102 277.374,224.104 277.891,225.861L282.512,241.546C283.029,243.302 282.025,245.146 280.268,245.663C279.955,245.755 279.64,245.799 279.33,245.799Z" style="fill:rgb(255,90,0);fill-rule:nonzero;"/>
        <path d="M262.998,244.703C266.218,243.598 268.553,240.541 268.553,236.959C268.553,232.455 264.867,228.769 260.363,228.769L257.682,228.769C260.61,227.517 262.675,224.606 262.675,221.234C262.675,216.73 258.989,213.044 254.485,213.044L219.245,213.044C214.74,213.044 211.055,216.73 211.055,221.234C211.055,224.606 213.12,227.517 216.047,228.769L213.367,228.769C208.862,228.769 205.177,232.455 205.177,236.959C205.177,240.541 207.511,243.598 210.731,244.703C205.774,244.75 201.732,248.816 201.732,253.784L201.732,253.794C201.732,258.791 205.82,262.88 210.817,262.88L262.912,262.88C267.909,262.88 271.998,258.791 271.998,253.794L271.998,253.784C271.998,248.816 267.956,244.75 262.998,244.703Z" style="fill:rgb(73,28,14);fill-rule:nonzero;"/>
        <path d="M262.998,244.703C266.218,243.598 268.553,240.541 268.553,236.959C268.553,232.455 264.867,228.769 260.363,228.769L257.682,228.769C260.61,227.517 262.675,224.606 262.675,221.234C262.675,216.73 258.989,213.044 254.485,213.044L219.245,213.044C214.74,213.044 211.055,216.73 211.055,221.234C211.055,224.606 213.12,227.517 216.047,228.769L213.367,228.769C208.862,228.769 205.177,232.455 205.177,236.959C205.177,240.541 207.511,243.598 210.731,244.703C205.774,244.75 201.732,248.816 201.732,253.784L201.732,253.794C201.732,258.791 205.82,262.88 210.817,262.88L262.912,262.88C267.909,262.88 271.998,258.791 271.998,253.794L271.998,253.784C271.998,248.816 267.956,244.75 262.998,244.703Z" style="fill:none;stroke:rgb(73,28,14);stroke-width:3.02px;"/>
        <path d="M219.906,228.769L237.288,228.769" style="fill:none;stroke:rgb(255,242,221);stroke-width:3.02px;"/>
        <path d="M212.923,244.698L247.297,244.698" style="fill:none;stroke:rgb(255,242,221);stroke-width:3.02px;"/>
    </g>
</svg>
