<?xml version="1.0" encoding="UTF-8" standalone="no"?>
<!DOCTYPE svg PUBLIC "-//W3C//DTD SVG 1.1//EN" "http://www.w3.org/Graphics/SVG/1.1/DTD/svg11.dtd">
<svg width="100%" height="100%" viewBox="0 0 114 72" version="1.1" xmlns="http://www.w3.org/2000/svg" xmlns:xlink="http://www.w3.org/1999/xlink" xml:space="preserve" xmlns:serif="http://www.serif.com/" style="fill-rule:evenodd;clip-rule:evenodd;stroke-linecap:round;stroke-linejoin:round;stroke-miterlimit:10;">
    <g transform="matrix(1,0,0,1,-1026.15,-45.1677)">
        <g transform="matrix(1,0,0,1,1012.5,0)">
            <g id="Graphic">
                <g transform="matrix(1,0,0,1,52.4683,70.7522)">
                    <path d="M0,30.196L-6.941,30.196C-11.25,30.196 -14.743,26.703 -14.743,22.393L-14.743,7.802C-14.743,3.493 -18.237,0 -22.546,0L-32.936,0" style="fill:none;fill-rule:nonzero;stroke:rgb(97,67,59);stroke-width:4.02px;"/>
                </g>
                <g transform="matrix(1,0,0,1,21.9214,67.4364)">
                    <path d="M0,6.631L-4.958,6.631C-6.79,6.631 -8.273,5.147 -8.273,3.316C-8.273,1.485 -6.79,0 -4.958,0L0,0C1.832,0 3.316,1.485 3.316,3.316C3.316,5.147 1.832,6.631 0,6.631" style="fill:rgb(167,243,208);fill-rule:nonzero;"/>
                </g>
                <g transform="matrix(1,0,0,1,101.302,80.8672)">
                    <path d="M0,0L3.313,0" style="fill:none;fill-rule:nonzero;stroke:rgb(97,67,59);stroke-width:3.02px;"/>
                </g>
                <g transform="matrix(1,0,0,1,72.085,96.6987)">
                    <path d="M0,0L37.336,0" style="fill:none;fill-rule:nonzero;stroke:rgb(97,67,59);stroke-width:3.02px;"/>
                </g>
                <g transform="matrix(0,-1,-1,0,85.6616,53.4483)">
                    <path d="M-3.103,3.103L3.103,3.103" style="fill:none;fill-rule:nonzero;stroke:rgb(97,67,59);stroke-width:3.02px;"/>
                </g>
                <g transform="matrix(1,0,0,1,90.2266,45.1677)">
                    <path d="M0,5.178L-15.961,5.178C-16.812,5.178 -17.501,4.489 -17.501,3.638L-17.501,1.54C-17.501,0.689 -16.812,0 -15.961,0L0,0C0.85,0 1.54,0.689 1.54,1.54L1.54,3.638C1.54,4.489 0.85,5.178 0,5.178" style="fill:rgb(97,67,59);fill-rule:nonzero;"/>
                </g>
                <g transform="matrix(1,0,0,1,55.1523,96.6987)">
                    <path d="M0,0L8.48,0" style="fill:none;fill-rule:nonzero;stroke:rgb(97,67,59);stroke-width:3.02px;"/>
                </g>
                <g transform="matrix(-1,0,0,1,76.7599,65.0449)">
                    <path d="M-11.599,-9.5L0.001,-9.5C5.247,-9.5 9.5,-5.247 9.5,0L-21.099,0C-21.099,-5.247 -16.846,-9.5 -11.599,-9.5" style="fill:rgb(167,243,208);fill-rule:nonzero;"/>
                </g>
                <g transform="matrix(1,0,0,1,106.349,89.7666)">
                    <path d="M0,-18.895L10.819,-18.895L16.883,0" style="fill:none;fill-rule:nonzero;stroke:rgb(97,67,59);stroke-width:4.02px;"/>
                </g>
                <g transform="matrix(1,0,0,1,124.331,75.1028)">
                    <path d="M0,22.697C-1.434,22.697 -2.754,21.761 -3.18,20.317L-7.8,4.632C-8.317,2.876 -7.313,1.032 -5.556,0.514C-3.795,0 -1.956,1.002 -1.439,2.759L3.182,18.444C3.698,20.2 2.695,22.043 0.937,22.561C0.625,22.653 0.31,22.697 0,22.697" style="fill:rgb(167,243,208);fill-rule:nonzero;"/>
                </g>
                <g transform="matrix(1,0,0,1,107.999,83.2221)">
                    <path d="M0,13.481C3.22,12.377 5.554,9.319 5.554,5.737C5.554,1.233 1.869,-2.453 -2.636,-2.453L-5.316,-2.453C-2.389,-3.705 -0.324,-6.616 -0.324,-9.988C-0.324,-14.492 -4.009,-18.177 -8.514,-18.177L-43.754,-18.177C-48.258,-18.177 -51.944,-14.492 -51.944,-9.988C-51.944,-6.616 -49.879,-3.705 -46.952,-2.453L-49.632,-2.453C-54.136,-2.453 -57.822,1.233 -57.822,5.737C-57.822,9.319 -55.487,12.377 -52.268,13.481C-57.225,13.528 -61.267,17.594 -61.267,22.562L-61.267,22.573C-61.267,27.57 -57.178,31.658 -52.181,31.658L-0.086,31.658C4.911,31.658 8.999,27.57 8.999,22.573L8.999,22.562C8.999,17.594 4.957,13.528 0,13.481Z" style="fill:rgb(97,67,59);fill-rule:nonzero;stroke:rgb(97,67,59);stroke-width:3.02px;"/>
                </g>
                <g transform="matrix(1,0,0,1,64.9063,80.7695)">
                    <path d="M0,0L17.382,0" style="fill:none;fill-rule:nonzero;stroke:rgb(255,251,235);stroke-width:3.02px;"/>
                </g>
                <g transform="matrix(1,0,0,1,57.9233,96.6987)">
                    <path d="M0,0L34.375,0" style="fill:none;fill-rule:nonzero;stroke:rgb(255,251,235);stroke-width:3.02px;"/>
                </g>
            </g>
        </g>
    </g>
</svg>
