<?xml version="1.0" encoding="UTF-8" standalone="no"?>
<!DOCTYPE svg PUBLIC "-//W3C//DTD SVG 1.1//EN" "http://www.w3.org/Graphics/SVG/1.1/DTD/svg11.dtd">
<svg width="100%" height="100%" viewBox="0 0 87 108" version="1.1" xmlns="http://www.w3.org/2000/svg" xmlns:xlink="http://www.w3.org/1999/xlink" xml:space="preserve" xmlns:serif="http://www.serif.com/" style="fill-rule:evenodd;clip-rule:evenodd;stroke-linecap:round;stroke-linejoin:round;stroke-miterlimit:10;">
    <g transform="matrix(1,0,0,1,-546.706,-184.962)">
        <g transform="matrix(1,0,0,1,506.25,168.75)">
            <g id="Graphic">
                <g transform="matrix(0.954063,-0.299607,-0.299607,-0.954063,103.802,45.2605)">
                    <path d="M4.327,1.78L16.383,1.78L16.926,-11.295L1.512,-28.836L-2.426,-27.599" style="fill:none;fill-rule:nonzero;stroke:rgb(97,67,59);stroke-width:7px;"/>
                </g>
                <g transform="matrix(-1,0,0,1,156.506,18.694)">
                    <rect x="61.161" y="60.302" width="34.184" height="10.702" style="fill:rgb(167,243,208);"/>
                </g>
                <g transform="matrix(0.984407,-0.175908,-0.175908,-0.984407,103.447,38.0675)">
                    <path d="M0.838,0.258L6.455,0.258L4.837,-8.798L-2.706,-9.458L0.838,0.258Z" style="fill:rgb(255,251,235);fill-rule:nonzero;stroke:rgb(97,67,59);stroke-width:3px;"/>
                </g>
                <g transform="matrix(1,0,0,1,56.8521,49.977)">
                    <path d="M0,-12.311L-14.896,-12.311L-2.541,0L0,-12.311Z" style="fill:rgb(255,251,235);fill-rule:nonzero;stroke:rgb(97,67,59);stroke-width:3px;"/>
                </g>
                <g transform="matrix(1,0,0,1,54.8877,23.355)">
                    <path d="M0,14.311L23.795,0L46.981,14.311L0,14.311Z" style="fill:rgb(167,243,208);fill-rule:nonzero;"/>
                </g>
                <g transform="matrix(-1,0,0,1,52.5306,86.7344)">
                    <path d="M-51.696,35.477L0,35.477L-6.133,0L-45.563,0L-51.696,35.477Z" style="fill:rgb(255,251,235);fill-rule:nonzero;stroke:rgb(97,67,59);stroke-width:3px;"/>
                </g>
                <g transform="matrix(0.113498,-0.993538,-0.993538,-0.113498,86.6941,108.58)">
                    <path d="M-15.735,17.635L19.764,17.635" style="fill:none;fill-rule:nonzero;stroke:rgb(97,67,59);stroke-width:3px;"/>
                </g>
                <g transform="matrix(0.147453,0.989069,0.989069,-0.147453,104.792,99.3764)">
                    <path d="M-15.2,-17.635L20.458,-17.635" style="fill:none;fill-rule:nonzero;stroke:rgb(97,67,59);stroke-width:3px;"/>
                </g>
                <g transform="matrix(1,0,0,1,52.5303,80.06)">
                    <path d="M0,-42.394L51.696,-42.394L45.563,0L6.133,0L0,-42.394Z" style="fill:rgb(255,251,235);fill-rule:nonzero;stroke:rgb(97,67,59);stroke-width:3px;"/>
                </g>
                <g transform="matrix(-0.0950496,0.995473,0.995473,0.0950496,108.161,62.7688)">
                    <path d="M-23.203,-21.093L19.175,-21.093" style="fill:none;fill-rule:nonzero;stroke:rgb(97,67,59);stroke-width:3px;"/>
                </g>
                <g transform="matrix(-0.123658,-0.992325,-0.992325,0.123658,89.6251,53.5419)">
                    <path d="M-23.885,21.093L18.628,21.093" style="fill:none;fill-rule:nonzero;stroke:rgb(97,67,59);stroke-width:3px;"/>
                </g>
                <g transform="matrix(-1,0,0,1,76.336,16.2116)">
                    <path d="M-4.624,9.368L-0,9.368L1.291,0L-5.915,0L-4.624,9.368Z" style="fill:rgb(97,67,59);fill-rule:nonzero;"/>
                </g>
            </g>
        </g>
    </g>
</svg>
