<?xml version="1.0" encoding="UTF-8" standalone="no"?>
<!DOCTYPE svg PUBLIC "-//W3C//DTD SVG 1.1//EN" "http://www.w3.org/Graphics/SVG/1.1/DTD/svg11.dtd">
<svg width="100%" height="100%" viewBox="0 0 87 108" version="1.1" xmlns="http://www.w3.org/2000/svg" xmlns:xlink="http://www.w3.org/1999/xlink" xml:space="preserve" xmlns:serif="http://www.serif.com/" style="fill-rule:evenodd;clip-rule:evenodd;stroke-linecap:round;stroke-linejoin:round;stroke-miterlimit:2;">
    <g transform="matrix(1,0,0,1,-370.456,-339.211)">
        <path d="M437.396,365.265L448.898,361.653L453.334,373.965L443.883,395.318L439.755,395.318" style="fill:none;stroke:rgb(73,28,14);stroke-width:7px;"/>
        <rect x="391.16" y="401.996" width="34.184" height="10.702" style="fill:rgb(254,90,0);fill-rule:nonzero;"/>
        <path d="M434.227,360.665L439.755,359.677L439.755,368.877L432.445,370.853L434.227,360.665Z" style="fill:rgb(255,242,221);fill-rule:nonzero;"/>
        <path d="M434.227,360.665L439.755,359.677L439.755,368.877L432.445,370.853L434.227,360.665Z" style="fill:none;stroke:rgb(73,28,14);stroke-width:3px;"/>
        <path d="M386.851,360.665L371.956,360.665L384.311,372.976L386.851,360.665Z" style="fill:rgb(255,242,221);fill-rule:nonzero;"/>
        <path d="M386.851,360.665L371.956,360.665L384.311,372.976L386.851,360.665Z" style="fill:none;stroke:rgb(73,28,14);stroke-width:3px;"/>
        <path d="M384.888,360.665L408.683,346.355L431.869,360.665L384.888,360.665Z" style="fill:rgb(254,90,0);fill-rule:nonzero;"/>
        <path d="M434.227,445.211L382.53,445.211L388.663,409.734L428.093,409.734L434.227,445.211Z" style="fill:rgb(255,242,221);fill-rule:nonzero;"/>
        <path d="M434.227,445.211L382.53,445.211L388.663,409.734L428.093,409.734L434.227,445.211Z" style="fill:none;stroke:rgb(73,28,14);stroke-width:3px;"/>
        <path d="M397.387,445.211L401.416,409.942" style="fill:none;fill-rule:nonzero;"/>
        <path d="M397.387,445.211L401.416,409.942" style="fill:none;stroke:rgb(73,28,14);stroke-width:3px;"/>
        <path d="M415.109,409.942L420.367,445.211" style="fill:none;fill-rule:nonzero;"/>
        <path d="M415.109,409.942L420.367,445.211" style="fill:none;stroke:rgb(73,28,14);stroke-width:3px;"/>
        <path d="M382.53,360.665L434.227,360.665L428.093,403.059L388.663,403.059L382.53,360.665Z" style="fill:rgb(255,242,221);fill-rule:nonzero;"/>
        <path d="M382.53,360.665L434.227,360.665L428.093,403.059L388.663,403.059L382.53,360.665Z" style="fill:none;stroke:rgb(73,28,14);stroke-width:3px;"/>
        <path d="M419.369,360.665L415.34,402.851" style="fill:none;fill-rule:nonzero;"/>
        <path d="M419.369,360.665L415.34,402.851" style="fill:none;stroke:rgb(73,28,14);stroke-width:3px;"/>
        <path d="M401.647,402.851L396.39,360.665" style="fill:none;fill-rule:nonzero;"/>
        <path d="M401.647,402.851L396.39,360.665" style="fill:none;stroke:rgb(73,28,14);stroke-width:3px;"/>
        <path d="M410.959,348.579L406.335,348.579L405.044,339.211L412.25,339.211L410.959,348.579Z" style="fill:rgb(74,27,15);fill-rule:nonzero;"/>
    </g>
</svg>
