<?xml version="1.0" encoding="UTF-8" standalone="no"?>
<!DOCTYPE svg PUBLIC "-//W3C//DTD SVG 1.1//EN" "http://www.w3.org/Graphics/SVG/1.1/DTD/svg11.dtd">
<svg width="100%" height="100%" viewBox="0 0 106 106" version="1.1" xmlns="http://www.w3.org/2000/svg" xmlns:xlink="http://www.w3.org/1999/xlink" xml:space="preserve" xmlns:serif="http://www.serif.com/" style="fill-rule:evenodd;clip-rule:evenodd;stroke-miterlimit:2;">
    <g transform="matrix(1,0,0,1,-3.79504,-872.818)">
        <path d="M86.432,916.611L25.078,921.6L25.835,932.375C26.522,942.161 34.452,949.495 43.547,948.755L71.965,946.445C81.06,945.705 87.876,937.172 87.189,927.386L86.432,916.611Z" style="fill:rgb(73,28,14);fill-rule:nonzero;"/>
        <path d="M25.517,927.858L86.83,923.278" style="fill:none;stroke:rgb(255,90,0);stroke-width:2px;"/>
        <path d="M99.319,954.175L14.043,954.175C12.45,954.175 11.051,955.435 10.621,957.258L7.631,969.923C6.995,972.618 8.699,975.29 11.054,975.29L102.308,975.29C104.663,975.29 106.367,972.618 105.73,969.923L102.741,957.258C102.311,955.435 100.912,954.175 99.319,954.175Z" style="fill:rgb(255,242,221);fill-rule:nonzero;"/>
        <path d="M99.319,954.175L14.043,954.175C12.45,954.175 11.051,955.435 10.621,957.258L7.631,969.923C6.995,972.618 8.699,975.29 11.054,975.29L102.308,975.29C104.663,975.29 106.367,972.618 105.73,969.923L102.741,957.258C102.311,955.435 100.912,954.175 99.319,954.175Z" style="fill:none;stroke:rgb(73,28,14);stroke-width:3px;"/>
        <rect x="3.795" y="947.641" width="106" height="8.641" style="fill:rgb(255,90,0);fill-rule:nonzero;"/>
        <rect x="26.354" y="961.825" width="60.883" height="7.063" style="fill:rgb(73,28,14);fill-rule:nonzero;"/>
        <path d="M65.375,913.917C62.032,912.404 60.534,908.432 62.047,905.089L64.509,899.648C66.021,896.305 69.994,894.807 73.337,896.32C76.68,897.832 78.178,901.805 76.665,905.148L74.203,910.589C72.69,913.932 68.718,915.43 65.375,913.917Z" style="fill:rgb(255,90,0);fill-rule:nonzero;"/>
        <clipPath id="_clip1">
            <path d="M65.375,913.917C62.032,912.404 60.534,908.432 62.047,905.089L64.509,899.648C66.021,896.305 69.994,894.807 73.337,896.32C76.68,897.832 78.178,901.805 76.665,905.148L74.203,910.589C72.69,913.932 68.718,915.43 65.375,913.917Z" clip-rule="nonzero"/>
        </clipPath>
        <g clip-path="url(#_clip1)">
            <path d="M75.259,895.617C71.654,896.195 68.964,901.445 69.045,905.806C69.162,909.984 65.759,914.817 63.109,914.635" style="fill:none;stroke:rgb(73,28,14);stroke-width:2px;stroke-linecap:round;stroke-linejoin:round;"/>
        </g>
        <path d="M55.483,891.444C52.013,892.637 48.198,890.774 47.005,887.305L45.063,881.657C43.869,878.187 45.732,874.372 49.202,873.179C52.672,871.986 56.487,873.848 57.68,877.318L59.622,882.966C60.815,886.435 58.953,890.251 55.483,891.444Z" style="fill:rgb(255,90,0);fill-rule:nonzero;"/>
        <clipPath id="_clip2">
            <path d="M55.483,891.444C52.013,892.637 48.198,890.774 47.005,887.305L45.063,881.657C43.869,878.187 45.732,874.372 49.202,873.179C52.672,871.986 56.487,873.848 57.68,877.318L59.622,882.966C60.815,886.435 58.953,890.251 55.483,891.444Z" clip-rule="nonzero"/>
        </clipPath>
        <g clip-path="url(#_clip2)">
            <path d="M50.203,871.598C47.962,874.447 49.562,879.981 52.583,883.01C55.506,885.885 56.302,891.607 54.242,893.272" style="fill:none;stroke:rgb(73,28,14);stroke-width:2px;stroke-linecap:round;stroke-linejoin:round;"/>
        </g>
        <path d="M47.038,913.826C44.405,916.382 40.16,916.32 37.604,913.688L33.443,909.403C30.887,906.771 30.949,902.526 33.581,899.97C36.213,897.414 40.459,897.476 43.015,900.108L47.176,904.392C49.732,907.024 49.67,911.27 47.038,913.826Z" style="fill:rgb(255,90,0);fill-rule:nonzero;"/>
        <clipPath id="_clip3">
            <path d="M47.038,913.826C44.405,916.382 40.16,916.32 37.604,913.688L33.443,909.403C30.887,906.771 30.949,902.526 33.581,899.97C36.213,897.414 40.459,897.476 43.015,900.108L47.176,904.392C49.732,907.024 49.67,911.27 47.038,913.826Z" clip-rule="nonzero"/>
        </clipPath>
        <g clip-path="url(#_clip3)">
            <path d="M33.815,898.113C32.999,901.645 36.802,905.972 40.824,907.428C44.693,908.786 47.848,913.625 46.692,916.009" style="fill:none;stroke:rgb(73,28,14);stroke-width:2px;stroke-linecap:round;stroke-linejoin:round;"/>
        </g>
    </g>
</svg>
