<?xml version="1.0" encoding="UTF-8" standalone="no"?>
<!DOCTYPE svg PUBLIC "-//W3C//DTD SVG 1.1//EN" "http://www.w3.org/Graphics/SVG/1.1/DTD/svg11.dtd">
<svg width="100%" height="100%" viewBox="0 0 129 120" version="1.1" xmlns="http://www.w3.org/2000/svg" xmlns:xlink="http://www.w3.org/1999/xlink" xml:space="preserve" xmlns:serif="http://www.serif.com/" style="fill-rule:evenodd;clip-rule:evenodd;stroke-miterlimit:10;">
    <g transform="matrix(1,0,0,1,-1193.67,-360.099)">
        <g transform="matrix(1,0,0,1,1181.25,337.5)">
            <g id="Graphic">
                <g transform="matrix(1,0,0,1,106.433,101.495)">
                    <path d="M0,-32.884L-61.354,-27.895L-60.598,-17.12C-59.911,-7.334 -51.98,0 -42.886,-0.739L-14.467,-3.05C-5.372,-3.79 1.444,-12.322 0.756,-22.109L0,-32.884Z" style="fill:rgb(97,67,59);fill-rule:nonzero;"/>
                </g>
                <g transform="matrix(0.997223,-0.074475,-0.074475,-0.997223,45.7732,82.1352)">
                    <path d="M-0.085,2.29L61.398,2.29" style="fill:none;fill-rule:nonzero;stroke:rgb(167,243,208);stroke-width:2px;"/>
                </g>
                <g transform="matrix(1,0,0,1,119.319,127.291)">
                    <path d="M0,-21.116L-85.276,-21.116C-86.869,-21.116 -88.268,-19.855 -88.698,-18.032L-91.688,-5.368C-92.324,-2.673 -90.62,0 -88.266,0L2.989,0C5.344,0 7.047,-2.673 6.412,-5.368L3.422,-18.032C2.992,-19.855 1.593,-21.116 0,-21.116Z" style="fill:rgb(255,251,235);fill-rule:nonzero;stroke:rgb(97,67,59);stroke-width:3px;"/>
                </g>
                <g transform="matrix(-1,0,0,1,153.59,57.922)">
                    <rect x="23.795" y="41.718" width="106" height="8.642" style="fill:rgb(167,243,208);"/>
                </g>
                <g transform="matrix(-1,0,0,1,153.591,84.715)">
                    <rect x="46.354" y="29.111" width="60.883" height="7.063" style="fill:rgb(97,67,59);"/>
                </g>
                <g transform="matrix(1,0,0,1,85.375,48.321)">
                    <path d="M0,17.596C-3.343,16.084 -4.84,12.112 -3.328,8.768L-0.866,3.327C0.647,-0.016 4.62,-1.513 7.962,-0.001C11.306,1.512 12.803,5.485 11.291,8.827L8.828,14.269C7.316,17.612 3.343,19.109 0,17.596" style="fill:rgb(167,243,208);fill-rule:nonzero;"/>
                </g>
                <g transform="matrix(1,0,0,1,95.2593,66.8172)">
                    <clipPath id="_clip1">
                        <path d="M-10.75,-15.169L-13.211,-9.728C-14.724,-6.384 -13.227,-2.411 -9.884,-0.9C-6.541,0.613 -2.568,-0.884 -1.056,-4.227L1.406,-9.668C2.918,-13.012 1.422,-16.984 -1.922,-18.496C-2.807,-18.897 -3.737,-19.087 -4.653,-19.087C-7.196,-19.086 -9.638,-17.627 -10.75,-15.169Z" clip-rule="nonzero"/>
                    </clipPath>
                    <g clip-path="url(#_clip1)">
                        <path d="M0,-19.2C-3.605,-18.622 -6.295,-13.371 -6.214,-9.011C-6.097,-4.833 -9.5,0 -12.15,-0.181" style="fill:none;fill-rule:nonzero;stroke:rgb(97,67,59);stroke-width:2px;stroke-linecap:round;stroke-linejoin:round;"/>
                    </g>
                </g>
                <g transform="matrix(1,0,0,1,75.4834,25.1793)">
                    <path d="M0,18.265C-3.47,19.458 -7.285,17.595 -8.478,14.125L-10.42,8.478C-11.613,5.008 -9.751,1.193 -6.281,0C-2.812,-1.193 1.004,0.669 2.197,4.139L4.139,9.786C5.333,13.256 3.47,17.072 0,18.265" style="fill:rgb(167,243,208);fill-rule:nonzero;"/>
                </g>
                <g transform="matrix(1,0,0,1,70.2036,45.2726)">
                    <clipPath id="_clip2">
                        <path d="M-1.002,-20.093C-4.472,-18.901 -6.334,-15.086 -5.141,-11.616L-3.199,-5.968C-2.006,-2.499 1.81,-0.635 5.279,-1.828C8.749,-3.022 10.612,-6.838 9.419,-10.307L7.476,-15.955C6.528,-18.712 3.924,-20.454 1.153,-20.454C0.437,-20.454 -0.29,-20.338 -1.002,-20.093Z" clip-rule="nonzero"/>
                    </clipPath>
                    <g clip-path="url(#_clip2)">
                        <path d="M0,-21.674C-2.242,-18.825 -0.641,-13.291 2.379,-10.262C5.303,-7.387 6.099,-1.665 4.039,0" style="fill:none;fill-rule:nonzero;stroke:rgb(97,67,59);stroke-width:2px;stroke-linecap:round;stroke-linejoin:round;"/>
                    </g>
                </g>
                <g transform="matrix(1,0,0,1,67.0381,51.9712)">
                    <path d="M0,13.855C-2.632,16.412 -6.877,16.349 -9.434,13.717L-13.594,9.433C-16.151,6.8 -16.088,2.555 -13.457,-0C-10.824,-2.557 -6.579,-2.495 -4.023,0.137L0.138,4.421C2.694,7.054 2.632,11.298 0,13.855" style="fill:rgb(167,243,208);fill-rule:nonzero;"/>
                </g>
                <g transform="matrix(1,0,0,1,53.8154,68.0093)">
                    <clipPath id="_clip3">
                        <path d="M-0.234,-16.038C-2.865,-13.483 -2.928,-9.238 -0.371,-6.605L3.79,-2.32C6.346,0.311 10.591,0.374 13.223,-2.182C15.856,-4.739 15.917,-8.984 13.361,-11.616L9.2,-15.9C7.898,-17.242 6.156,-17.916 4.413,-17.916C2.736,-17.916 1.057,-17.292 -0.234,-16.038Z" clip-rule="nonzero"/>
                    </clipPath>
                    <g clip-path="url(#_clip3)">
                        <path d="M0,-17.896C-0.816,-14.364 2.987,-10.037 7.009,-8.581C10.878,-7.223 14.033,-2.383 12.877,0" style="fill:none;fill-rule:nonzero;stroke:rgb(97,67,59);stroke-width:2px;stroke-linecap:round;stroke-linejoin:round;"/>
                    </g>
                </g>
            </g>
        </g>
    </g>
</svg>
