<?xml version="1.0" encoding="UTF-8" standalone="no"?>
<!DOCTYPE svg PUBLIC "-//W3C//DTD SVG 1.1//EN" "http://www.w3.org/Graphics/SVG/1.1/DTD/svg11.dtd">
<svg width="100%" height="100%" viewBox="0 0 53 125" version="1.1" xmlns="http://www.w3.org/2000/svg" xmlns:xlink="http://www.w3.org/1999/xlink" xml:space="preserve" xmlns:serif="http://www.serif.com/" style="fill-rule:evenodd;clip-rule:evenodd;stroke-linecap:round;stroke-linejoin:round;stroke-miterlimit:2;">
    <g transform="matrix(1,0,0,1,-33.574,-684.173)">
        <path d="M57.624,794.398C57.624,792.402 54.009,786.794 54.009,786.794C54.009,786.794 50.394,792.402 50.394,794.398C50.394,796.394 52.012,798.013 54.009,798.013C56.005,798.013 57.624,796.394 57.624,794.398Z" style="fill:rgb(254,90,0);fill-rule:nonzero;"/>
        <path d="M65.86,799.167L63.956,798.398C57.497,795.788 50.276,795.788 43.816,798.398L41.912,799.167C41.18,799.463 40.7,800.174 40.7,800.964L40.7,807.051L67.072,807.051L67.072,800.964C67.072,800.174 66.592,799.463 65.86,799.167Z" style="fill:rgb(255,242,221);fill-rule:nonzero;"/>
        <path d="M65.86,799.167L63.956,798.398C57.497,795.788 50.276,795.788 43.816,798.398L41.912,799.167C41.18,799.463 40.7,800.174 40.7,800.964L40.7,807.051L67.072,807.051L67.072,800.964C67.072,800.174 66.592,799.463 65.86,799.167Z" style="fill:none;stroke:rgb(73,28,14);stroke-width:3px;"/>
        <path d="M72.005,765.848C72.005,776.046 63.738,784.314 53.54,784.314C43.341,784.314 35.074,776.046 35.074,765.848C35.074,755.649 43.341,747.382 53.54,747.382C63.738,747.382 72.005,755.649 72.005,765.848Z" style="fill:rgb(255,242,221);fill-rule:nonzero;"/>
        <clipPath id="_clip1">
            <path d="M72.005,765.848C72.005,776.046 63.738,784.314 53.54,784.314C43.341,784.314 35.074,776.046 35.074,765.848C35.074,755.649 43.341,747.382 53.54,747.382C63.738,747.382 72.005,755.649 72.005,765.848Z" clip-rule="nonzero"/>
        </clipPath>
        <g clip-path="url(#_clip1)">
            <path d="M53.54,747.382L53.54,765.848" style="fill:none;fill-rule:nonzero;"/>
            <path d="M53.54,747.382L53.54,765.848" style="fill:none;stroke:rgb(255,90,0);stroke-width:3px;"/>
            <path d="M72.005,765.848L35.074,765.848C35.074,776.046 43.341,784.314 53.54,784.314C63.738,784.314 72.005,776.046 72.005,765.848Z" style="fill:rgb(73,28,14);fill-rule:nonzero;"/>
        </g>
        <path d="M72.005,765.848C72.005,776.046 63.738,784.314 53.54,784.314C43.341,784.314 35.074,776.046 35.074,765.848C35.074,755.649 43.341,747.382 53.54,747.382C63.738,747.382 72.005,755.649 72.005,765.848Z" style="fill:none;stroke:rgb(73,28,14);stroke-width:3px;"/>
        <path d="M57.473,742.993L82.497,742.993L82.497,807.051L41.449,807.051" style="fill:none;stroke:rgb(73,28,14);stroke-width:3px;"/>
        <rect x="45.528" y="742.454" width="16.024" height="6.559" style="fill:rgb(73,28,14);fill-rule:nonzero;"/>
        <rect x="45.528" y="736.434" width="16.024" height="6.559" style="fill:rgb(73,28,14);fill-rule:nonzero;"/>
        <path d="M48.233,742.454L59.539,742.454" style="fill:none;stroke:rgb(255,242,221);stroke-width:2px;"/>
        <path d="M68.924,687.051L38.474,687.051L38.474,731.468C38.474,734.211 40.697,736.434 43.439,736.434L63.958,736.434C66.7,736.434 68.924,734.211 68.924,731.468L68.924,687.051Z" style="fill:rgb(255,242,221);fill-rule:nonzero;"/>
        <clipPath id="_clip2">
            <path d="M68.924,687.051L38.474,687.051L38.474,731.468C38.474,734.211 40.697,736.434 43.439,736.434L63.958,736.434C66.7,736.434 68.924,734.211 68.924,731.468L68.924,687.051Z" clip-rule="nonzero"/>
        </clipPath>
        <g clip-path="url(#_clip2)">
            <path d="M55.393,708.378L51.702,708.378C51.011,708.378 50.451,707.818 50.451,707.127L50.451,690.634L56.643,690.634L56.643,707.127C56.643,707.818 56.083,708.378 55.393,708.378Z" style="fill:rgb(74,27,15);fill-rule:nonzero;"/>
            <path d="M68.924,719.045L38.474,719.045L38.474,731.285C38.474,734.027 40.697,736.251 43.439,736.251L68.924,736.251L68.924,719.045Z" style="fill:rgb(73,28,14);fill-rule:nonzero;"/>
        </g>
        <path d="M68.924,687.051L38.474,687.051L38.474,731.468C38.474,734.211 40.697,736.434 43.439,736.434L63.958,736.434C66.7,736.434 68.924,734.211 68.924,731.468L68.924,687.051Z" style="fill:none;stroke:rgb(73,28,14);stroke-width:3px;"/>
        <path d="M82.497,756.663L82.497,794.329" style="fill:none;fill-rule:nonzero;"/>
        <path d="M82.497,756.663L82.497,794.329" style="fill:none;stroke:rgb(255,90,0);stroke-width:7px;"/>
        <path d="M40.7,804.17L67.072,804.17" style="fill:none;stroke:rgb(73,28,14);stroke-width:2px;"/>
        <path d="M68.888,684.173L38.435,684.173C37.529,684.173 36.795,684.907 36.795,685.813L36.795,698.345L70.528,698.345L70.528,685.813C70.528,684.907 69.794,684.173 68.888,684.173Z" style="fill:rgb(254,90,0);fill-rule:nonzero;"/>
    </g>
</svg>
