<?xml version="1.0" encoding="UTF-8" standalone="no"?>
<!DOCTYPE svg PUBLIC "-//W3C//DTD SVG 1.1//EN" "http://www.w3.org/Graphics/SVG/1.1/DTD/svg11.dtd">
<svg width="100%" height="100%" viewBox="0 0 107 81" version="1.1" xmlns="http://www.w3.org/2000/svg" xmlns:xlink="http://www.w3.org/1999/xlink" xml:space="preserve" xmlns:serif="http://www.serif.com/" style="fill-rule:evenodd;clip-rule:evenodd;stroke-linecap:round;stroke-linejoin:round;stroke-miterlimit:10;">
    <g transform="matrix(1,0,0,1,-188.75,-205.797)">
        <g transform="matrix(1,0,0,1,168.75,168.75)">
            <g id="Graphic">
                <g transform="matrix(1,0,0,1,73.2256,65.0583)">
                    <path d="M0,37.761L-32.677,37.761C-44.008,37.761 -53.226,28.543 -53.226,17.213C-53.226,7.722 -45.504,0 -36.013,0L-21.532,0C-19.738,0 -18.283,1.454 -18.283,3.248C-18.283,5.042 -19.738,6.497 -21.532,6.497L-36.013,6.497C-41.922,6.497 -46.729,11.303 -46.729,17.213C-46.729,24.961 -40.425,31.264 -32.677,31.264L0,31.264C1.794,31.264 3.248,32.719 3.248,34.512C3.248,36.306 1.794,37.761 0,37.761" style="fill:rgb(167,243,208);fill-rule:nonzero;"/>
                </g>
                <g transform="matrix(0.599941,0.800044,0.800044,-0.599941,41.8578,62.2656)">
                    <path d="M-0.552,-5.392L7.568,-5.392L10.783,-1.105L2.517,-1.299L-0.552,-5.392Z" style="fill:rgb(97,67,59);fill-rule:nonzero;"/>
                </g>
                <g transform="matrix(0.5699,0.821714,0.821714,-0.5699,65.5826,92.3221)">
                    <path d="M0.156,-6.795L8.063,-6.795L12.982,0.298L3.879,-1.427L0.156,-6.795Z" style="fill:rgb(97,67,59);fill-rule:nonzero;"/>
                </g>
                <g transform="matrix(-0.75893,-0.651172,-0.651172,0.75893,52.6788,26.0779)">
                    <path d="M-45.866,1.897L-15.363,1.897C-14.295,1.897 -13.424,2.747 -13.397,3.814L-12.685,32.582L-45.866,1.897Z" style="fill:rgb(97,67,59);fill-rule:nonzero;"/>
                </g>
                <g transform="matrix(1,0,0,1,45.6523,39.6209)">
                    <path d="M0,19.444L54.01,-0.96L73.004,20.404L0,19.444Z" style="fill:rgb(255,251,235);fill-rule:nonzero;stroke:rgb(97,67,59);stroke-width:3.12px;"/>
                </g>
                <g transform="matrix(1,0,0,1,124.331,117.607)">
                    <path d="M0,-60.223L-85.792,-60.223C-87.18,-60.223 -87.959,-58.625 -87.104,-57.531L-54.354,-15.627C-52.389,-13.113 -54,-9.423 -57.18,-9.155L-76.094,-6.452L-76.094,0L-9.272,0L-9.272,-6.452L-29.214,-9.02C-32.419,-9.272 -34.042,-13.001 -32.043,-15.518L1.305,-57.521C2.171,-58.613 1.394,-60.223 0,-60.223" style="fill:rgb(167,243,208);fill-rule:nonzero;"/>
                </g>
                <g transform="matrix(1,0,0,1,68.355,107.386)">
                    <clipPath id="_clip1">
                        <path d="M-29.815,-50.001C-31.204,-50.001 -31.983,-48.404 -31.128,-47.31L1.622,-5.406C3.586,-2.892 1.976,0.798 -1.203,1.066L-20.119,3.769L-20.119,10.221L46.704,10.221L46.704,3.769L26.762,1.201C23.558,0.949 21.934,-2.779 23.933,-5.297L57.28,-47.3C58.147,-48.391 57.371,-50.001 55.976,-50.001L-29.815,-50.001Z" clip-rule="nonzero"/>
                    </clipPath>
                    <g clip-path="url(#_clip1)">
                        <path d="M0,-4.893L14.357,-3.511C14.914,-3.457 15.322,-2.962 15.268,-2.406C15.221,-1.915 14.831,-1.54 14.357,-1.495L0,-0.113C-1.32,0.015 -2.494,-0.953 -2.621,-2.273C-2.748,-3.593 -1.781,-4.766 -0.46,-4.893C-0.309,-4.908 -0.146,-4.906 0,-4.893" style="fill:rgb(97,67,59);fill-rule:nonzero;"/>
                    </g>
                </g>
            </g>
        </g>
    </g>
</svg>
