<?xml version="1.0" encoding="UTF-8" standalone="no"?>
<!DOCTYPE svg PUBLIC "-//W3C//DTD SVG 1.1//EN" "http://www.w3.org/Graphics/SVG/1.1/DTD/svg11.dtd">
<svg width="100%" height="100%" viewBox="0 0 106 81" version="1.1" xmlns="http://www.w3.org/2000/svg" xmlns:xlink="http://www.w3.org/1999/xlink" xml:space="preserve" xmlns:serif="http://www.serif.com/" style="fill-rule:evenodd;clip-rule:evenodd;stroke-linecap:round;stroke-linejoin:round;stroke-miterlimit:2;">
    <g transform="matrix(1,0,0,1,0,-360.047)">
        <path d="M53.225,425.819L20.548,425.819C9.217,425.819 0,416.601 0,405.27C0,395.78 7.721,388.058 17.212,388.058L31.694,388.058C33.488,388.058 34.942,389.512 34.942,391.306C34.942,393.1 33.488,394.555 31.694,394.555L17.212,394.555C11.303,394.555 6.496,399.362 6.496,405.27C6.496,413.018 12.8,419.322 20.548,419.322L53.225,419.322C55.019,419.322 56.473,420.777 56.473,422.571C56.473,424.364 55.019,425.819 53.225,425.819Z" style="fill:rgb(254,90,0);fill-rule:nonzero;"/>
        <path d="M17.212,388.058L22.084,394.555L27.443,394.555L22.328,388.058L17.212,388.058Z" style="fill:rgb(73,28,14);fill-rule:nonzero;"/>
        <path d="M40.087,419.322L44.594,425.819L53.225,425.819L46.621,419.322L40.087,419.322Z" style="fill:rgb(73,28,14);fill-rule:nonzero;"/>
        <path d="M66.252,380.384L43.102,360.521C42.293,359.826 41.077,359.904 40.363,360.696L21.088,382.064L66.252,380.384Z" style="fill:rgb(73,28,14);fill-rule:nonzero;"/>
        <path d="M25.652,382.064L79.662,361.66L98.656,383.025L25.652,382.064Z" style="fill:rgb(255,242,221);fill-rule:nonzero;"/>
        <path d="M25.652,382.064L79.662,361.66L98.656,383.025L25.652,382.064Z" style="fill:none;stroke:rgb(73,28,14);stroke-width:3.12px;"/>
        <path d="M104.33,380.384L18.539,380.384C17.151,380.384 16.372,381.982 17.226,383.076L49.977,424.98C51.941,427.494 50.33,431.184 47.151,431.452L28.237,434.154L28.237,440.606L95.058,440.606L95.058,434.154L75.117,431.587C71.912,431.335 70.288,427.606 72.287,425.088L105.635,383.086C106.502,381.994 105.725,380.384 104.33,380.384Z" style="fill:rgb(254,90,0);fill-rule:nonzero;"/>
        <clipPath id="_clip1">
            <path d="M104.33,380.384L18.539,380.384C17.151,380.384 16.372,381.982 17.226,383.076L49.977,424.98C51.941,427.494 50.33,431.184 47.151,431.452L28.237,434.154L28.237,440.606L95.058,440.606L95.058,434.154L75.117,431.587C71.912,431.335 70.288,427.606 72.287,425.088L105.635,383.086C106.502,381.994 105.725,380.384 104.33,380.384Z" clip-rule="nonzero"/>
        </clipPath>
        <g clip-path="url(#_clip1)">
            <path d="M48.354,427.883L62.712,427.883" style="fill:none;fill-rule:nonzero;"/>
            <path d="M48.354,425.492L62.712,426.875C63.268,426.929 63.676,427.423 63.622,427.98C63.575,428.471 63.185,428.845 62.712,428.891L48.354,430.273C47.034,430.4 45.861,429.433 45.734,428.113C45.607,426.793 46.574,425.62 47.894,425.492C48.045,425.478 48.208,425.479 48.354,425.492Z" style="fill:rgb(73,28,14);fill-rule:nonzero;"/>
        </g>
    </g>
</svg>
